<svg version="1" xmlns="http://www.w3.org/2000/svg" width="933.333" height="933.333" viewBox="0 0 700.000000 700.000000"><path d="M27.2 11.4L11 17.5v4.3c0 4.1.1 4.2 2.1 3.1 1.2-.6 3.4-1.5 4.8-1.9 1.4-.5 6.2-2.2 10.6-3.8l8-3v86.9l4-.3 4-.4.1-48.2c0-26.6-.2-48.5-.5-48.6-.3-.2-7.9 2.4-16.9 5.8zM6.2 179c-.5.3-.8 116.6-.8 258.5l.1 258 33.8.3 33.7.2V457h2.8c3.6-.1 248.4-.1 254.5 0h4.7v120c0 95.3.3 120 1.3 120.1 1.6.1 64.7.1 67.2 0 2-.1 2-.7 1.9-258.8-.1-142.4-.2-259.1-.3-259.4-.2-1-68-.5-68.4.6-.2.5-.3 50.6-.3 111.2.1 60.7-.1 110.3-.4 110.4-2.1.4-260.4.3-260.9-.1-.5-.3-.8-50.2-.7-110.8.1-60.7-.1-110.7-.4-111.1-.6-.8-66.7-1-67.8-.1z"/></svg>